# AST/ASF file generated using VICON BodyLanguage
# -----------------------------------------------
:version 1.10
:name VICON
:units
  mass 1.0
  length 0.45
  angle deg
:documentation
   .ast/.asf automatically generated from VICON data using
   VICON BodyBuilder and BodyLanguage model FoxedUp or BRILLIANT.MOD
:root
   order TX TY TZ RX RY RZ
   axis XYZ
   position 0 0 0  
   orientation 0 0 0 
:bonedata
  begin
     id 1 
     name lhipjoint
     direction 0.577973 -0.728611 0.367523 
     length 2.48544 
     axis 0 0 0  XYZ
  end
  begin
     id 2 
     name lfemur
     direction 0.34202 -0.939693 0  
     length 7.1921  
     axis 0 0 20  XYZ
    dof rx ry rz
    limits (-160.0 20.0)
           (-70.0 70.0)
           (-60.0 70.0)
  end
  begin
     id 3 
     name ltibia
     direction 0.34202 -0.939693 0   
     length 7.71059   
     axis 0 0 20   XYZ
    dof rx
    limits (-10.0 170.0)
  end
  begin
     id 4 
     name lfoot
     direction 0.089538 -0.246004 0.965124   
     length 2.19909   
     axis -90 7.62852e-016 20   XYZ
    dof rx rz
    limits (-45.0 90.0)
           (-70.0 20.0)
  end
  begin
     id 5 
     name ltoes
     direction 1.53544e-011 -4.21829e-011 1   
     length 1.10116   
     axis -90 7.62852e-016 20   XYZ
    dof rx
    limits (-90.0 20.0)
  end
  begin
     id 6 
     name rhipjoint
     direction -0.554414 -0.743062 0.374812   
     length 2.4371  
     axis 0 0 0  XYZ 
  end
  begin
     id 7 
     name rfemur
     direction -0.34202 -0.939693 0   
     length 7.47254   
     axis 0 0 -20   XYZ
    dof rx ry rz
    limits (-160.0 20.0)
           (-70.0 70.0)
           (-70.0 60.0)
  end
  begin
     id 8 
     name rtibia
     direction -0.34202 -0.939693 0   
     length 7.65855   
     axis 0 0 -20   XYZ
    dof rx
    limits (-10.0 170.0)
 end
 begin
     id 9 
     name rfoot
     direction -0.133779 -0.367555 0.92033   
     length 2.43006  
     axis -90 -7.62852e-016 -20   XYZ
    dof rx rz
    limits (-45.0 90.0)
           (-20.0 70.0)
  end
  begin
     id 10 
     name rtoes
     direction -1.53563e-011 -4.21889e-011 1   
     length 1.19625   
     axis -90 -7.62852e-016 -20   XYZ
    dof rx
    limits (-90.0 20.0)
  end
  begin
     id 11 
     name lowerback
     direction 0.0249066 0.998043 -0.0573585   
     length 2.08485   
     axis 0 0 0   XYZ
    dof rx ry rz
    limits (-20.0 45.0)
           (-30.0 30.0)
           (-30.0 30.0)
  end
  begin
     id 12 
     name upperback
     direction 0.0237884 0.999673 0.00943178   
     length 2.08515   
     axis 0 0 0   XYZ
    dof rx ry rz
    limits (-20.0 45.0)
           (-30.0 30.0)
           (-30.0 30.0)
  end
  begin
     id 13 
     name thorax
     direction 0.0106671 0.999301 0.0358174   
     length 2.09037   
     axis 0 0 0   XYZ
    dof rx ry rz
    limits (-20.0 45.0)
           (-30.0 30.0)
           (-30.0 30.0)
  end
  begin
     id 14 
     name lowerneck
     direction -0.0580016 0.987052 0.149546   
     length 1.84454   
     axis 0 0 0   XYZ
    dof rx ry rz
    limits (-20.0 45.0)
           (-30.0 30.0)
           (-30.0 30.0)
  end
  begin
     id 15 
     name upperneck
     direction 0.079456 0.981963 -0.171567   
     length 1.88141   
     axis 0 0 0   XYZ
    dof rx ry rz
    limits (-20.0 45.0)
           (-30.0 30.0)
           (-30.0 30.0)
  end
  begin
     id 16
     name head
     direction 0.0262167 0.9967 -0.0768276  
     length 1.89541  
     axis 0 0 0   XYZ
    dof rx ry rz
    limits (-20.0 45.0)
           (-30.0 30.0)
           (-30.0 30.0)
  end
  begin
     id 17 
     name lclavicle
     direction 0.946135 0.322134 -0.0325326  
     length 3.949  
     axis 0 0 0   XYZ
    dof ry rz
    limits (-20.0 10.0)
           (0.0 20.0)
  end
  begin
     id 18 
     name lhumerus
     direction 1 -4.48964e-011 1.94005e-028   
     length 5.10995   
     axis 180 -30 -90   XYZ
    dof rx ry rz
    limits (-60.0 90.0)
           (-90.0 90.0)
           (-90.0 90.0)
  end
  begin
     id 19
     name lradius
     direction 1 -4.48976e-011 2.87852e-027   
     length 3.21207   
     axis 180 -30 -90   XYZ
    dof rx
    limits (-10.0 170.0)
  end
  begin
     id 20
     name lwrist
     direction 1 -4.48963e-011 1.9975e-027   
     length 1.60604   
     axis 2.96054e-016 90 90   XYZ
    dof ry
    limits (-180.0 0.0)
 end
  begin
     id 21 
     name lhand
     direction 1 -4.48919e-011 4.00227e-027   
     length 0.63349   
     axis -2.5488e-015 90 90   XYZ
    dof rx rz
    limits (-90.0 90.0)
           (-45.0 45.0)
  end
  begin
     id 22 
     name lfingers
     direction 1 -4.49037e-011 7.9652e-027   
     length 0.510736   
     axis -5.0975e-015 90 90   XYZ
    dof rx
    limits (0.0 90.0)
  end
  begin
     id 23
     name lthumb
     direction 0.707107 -6.34922e-011 0.707107   
     length 0.733318   
     axis -90 45 -4.48553e-014   XYZ
    dof rx rz
    limits (-45.0 45.0)
           (-45.0 45.0)
  end
  begin
     id 24 
     name rclavicle
     direction -0.940085 0.328911 -0.0897654   
     length 3.93848  
     axis 0 0 0   XYZ 
    dof ry rz
    limits (-10.0 20.0)
           (-20.0 0.0)
  end
  begin
     id 25 
     name rhumerus
     direction -1 -4.48958e-011 3.02044e-027  
     length 5.25109   
     axis 180 30 90   XYZ
    dof rx ry rz
    limits (-90.0 60.0)
           (-90.0 90.0)
           (-90.0 90.0)
  end
  begin
     id 26 
     name rradius
     direction -1 -4.4897e-011 9.78352e-028   
     length 3.28364   
     axis 180 30 90   XYZ
    dof rx
    limits (-10.0 170.0)
  end
  begin
     id 27 
     name rwrist
     direction -1 -4.48943e-011 1.99918e-027   
     length 1.64182   
     axis 2.96054e-016 -90 -90   XYZ
    dof ry
    limits (-180.0 0.0)
  end
  begin
     id 28
     name rhand
     direction -1 -4.49024e-011 3.98478e-027   
     length 0.599745   
     axis -2.5488e-015 -90 -90   XYZ
    dof rx rz
    limits (-90.0 90.0)
           (-45.0 45.0)
  end
  begin
     id 29
     name rfingers
     direction -1 -4.48914e-011 8.00621e-027   
     length 0.48353   
     axis -5.0975e-015 -90 -90   XYZ
    dof rx
    limits (0.0 90.0)
  end
  begin
     id 30
     name rthumb
     direction -0.707107 -6.34992e-011 0.707107   
     length 0.694255   
     axis -90 -45 4.48553e-014   XYZ
    dof rx rz
    limits (-45.0 45.0)
           (-45.0 45.0)
  end
:hierarchy
  begin
    root lhipjoint rhipjoint lowerback
    lhipjoint lfemur
    lfemur ltibia
    ltibia lfoot
    lfoot ltoes
    rhipjoint rfemur
    rfemur rtibia
    rtibia rfoot
    rfoot rtoes
    lowerback upperback
    upperback thorax
    thorax lowerneck lclavicle rclavicle
    lowerneck upperneck
    upperneck head
    lclavicle lhumerus
    lhumerus lradius
    lradius lwrist
    lwrist lhand lthumb
    lhand lfingers
    rclavicle rhumerus
    rhumerus rradius
    rradius rwrist
    rwrist rhand rthumb
    rhand rfingers
  end

#!OML:ASF E:\CV Data\Top Level 1\Subject 1\Session 1\player.ASF
:FULLY-SPECIFIED
:DEGREES
540
root 4.67301 17.5951 -4.15916 13.4943 17.9089 -3.74944
lowerback 11.571 6.97241 -2.52445
upperback 3.33363 8.78756 -4.15702
thorax -2.64155 4.38406 -4.11343
lowerneck -16.5372 0.637031 -4.09385
upperneck 24.7541 3.07289 -3.00972
head 10.717 0.703371 0.0494005
rclavicle 4.57205e-014 -2.78299e-014
rhumerus 9.46761 38.2795 -93.9486
rradius 80.2083
rwrist -53.02
rhand -17.7394 -9.89246
rfingers 7.12502
rthumb 8.52184 -39.7005
lclavicle 4.57205e-014 -2.78299e-014
lhumerus -11.9512 -10.0303 88.3281
lradius 98.3818
lwrist 58.3562
lhand 4.77966 17.3705
lfingers 7.12502
lthumb 30.1598 44.9288
rfemur -18.2872 -27.84 28.3133
rtibia 30.4243
rfoot -22.9084 -36.2282
rtoes 7.34862
lfemur -36.0801 -12.2989 -9.38159
ltibia 25.9346
lfoot -4.92558 -21.9779
ltoes 9.57294
541
root 4.68147 17.5991 -4.15888 13.5269 17.7487 -3.74095
lowerback 11.5061 6.93321 -2.52546
upperback 3.31217 8.7394 -4.11514
thorax -2.6382 4.35963 -4.0562
lowerneck -16.4734 0.372734 -4.44102
upperneck 24.5134 2.72158 -2.80439
head 10.6103 0.542581 0.131747
rclavicle -1.68569e-013 5.725e-014
rhumerus 9.49258 38.0437 -93.9006
rradius 80.1009
rwrist -54.2107
rhand -17.2637 -9.83434
rfingers 7.12502
rthumb 8.98087 -39.6232
lclavicle -1.68569e-013 5.725e-014
lhumerus -11.9359 -9.94102 88.3587
lradius 98.2314
lwrist 57.5979
lhand 4.76712 17.3273
lfingers 7.12502
lthumb 30.1478 44.8877
rfemur -18.2481 -27.7124 28.2516
rtibia 30.3093
rfoot -22.8274 -36.2049
rtoes 7.32628
lfemur -36.0136 -12.22 -9.42768
ltibia 25.8423
lfoot -4.89658 -21.9091
ltoes 9.57849
542
root 4.68964 17.6031 -4.15799 13.5597 17.5978 -3.7349
lowerback 11.4534 6.8919 -2.52699
upperback 3.28649 8.68747 -4.0735
thorax -2.64602 4.3332 -4.00059
lowerneck -16.4138 0.054716 -4.86721
upperneck 24.2465 2.29476 -2.51916
head 10.4965 0.350016 0.245557
rclavicle 1.38752e-013 -6.83819e-014
rhumerus 9.49169 37.8027 -93.887
rradius 79.998
rwrist -55.2591
rhand -16.7436 -9.80469
rfingers 7.12502
rthumb 9.48275 -39.5713
lclavicle 1.38752e-013 -6.83819e-014
lhumerus -11.9496 -9.80259 88.3685
lradius 98.1027
lwrist 56.9284
lhand 5.33811 17.8371
lfingers 7.12502
lthumb 30.6924 45.2967
rfemur -18.2067 -27.5862 28.1955
rtibia 30.1916
rfoot -22.7497 -36.1871
rtoes 7.30724
lfemur -35.9482 -12.1386 -9.47116
ltibia 25.7513
lfoot -4.86796 -21.8512
ltoes 9.59249
543
root 4.69756 17.6073 -4.15664 13.5949 17.4589 -3.72906
lowerback 11.4068 6.85443 -2.52751
upperback 3.25542 8.64003 -4.03551
thorax -2.66177 4.30895 -3.95122
lowerneck -16.3453 -0.325705 -5.36171
upperneck 23.9494 1.77784 -2.15669
head 10.374 0.119824 0.385978
rclavicle 9.58142e-014 -4.77083e-014
rhumerus 9.44865 37.5333 -93.919
rradius 79.9025
rwrist -56.1657
rhand -16.222 -9.78276
rfingers 7.12502
rthumb 9.98601 -39.5259
lclavicle 9.58142e-014 -4.77083e-014
lhumerus -12.0072 -9.67211 88.3676
lradius 97.9715
lwrist 56.2121
lhand 5.91473 18.2612
lfingers 7.12502
lthumb 31.2421 45.6162
rfemur -18.1656 -27.4666 28.1438
rtibia 30.0718
rfoot -22.6786 -36.1715
rtoes 7.29802
lfemur -35.8873 -12.0594 -9.51292
ltibia 25.6619
lfoot -4.8384 -21.803
ltoes 9.62563
544
root 4.70534 17.6114 -4.15482 13.634 17.3303 -3.72375
lowerback 11.3622 6.82057 -2.52901
upperback 3.21873 8.59682 -3.99971
thorax -2.68399 4.28677 -3.90496
lowerneck -16.2502 -0.76567 -5.91435
upperneck 23.6129 1.17368 -1.72646
head 10.2388 -0.146757 0.548273
rclavicle -6.87795e-014 1.74931e-014
rhumerus 9.37 37.2509 -93.9836
rradius 79.8193
rwrist -56.959
rhand -15.6931 -9.80352
rfingers 7.12502
rthumb 10.4962 -39.5215
lclavicle -6.87795e-014 1.74931e-014
lhumerus -12.1082 -9.55741 88.3669
lradius 97.8117
lwrist 55.345
lhand 6.53973 18.5531
lfingers 7.12502
lthumb 31.8375 45.7915
rfemur -18.1278 -27.35 28.0972
rtibia 29.9523
rfoot -22.6165 -36.1592
rtoes 7.30067
lfemur -35.8325 -11.9827 -9.55256
ltibia 25.5742
lfoot -4.8103 -21.7607
ltoes 9.65755
545
root 4.71295 17.6154 -4.15262 13.6775 17.2127 -3.72081
lowerback 11.3192 6.78717 -2.53299
upperback 3.17896 8.55376 -3.96297
thorax -2.71065 4.26461 -3.85691
lowerneck -16.1349 -1.25683 -6.51737
upperneck 23.2345 0.496001 -1.24024
head 10.0941 -0.444535 0.728831
rclavicle 3.97569e-015 1.59028e-014
rhumerus 9.26722 36.9817 -94.0643
rradius 79.7545
rwrist -57.665
rhand -15.2079 -9.82819
rfingers 7.12502
rthumb 10.9642 -39.5219
lclavicle 3.97569e-015 1.59028e-014
lhumerus -12.2495 -9.46092 88.3752
lradius 97.5972
lwrist 54.1654
lhand 7.09876 18.5182
lfingers 7.12502
lthumb 32.3697 45.6493
rfemur -18.0969 -27.2376 28.0585
rtibia 29.8356
rfoot -22.5583 -36.1518
rtoes 7.30944
lfemur -35.7866 -11.9129 -9.58591
ltibia 25.4888
lfoot -4.78154 -21.7192
ltoes 9.69312
546
root 4.72047 17.6192 -4.15008 13.7272 17.107 -3.71466
lowerback 11.2738 6.74829 -2.55064
upperback 3.13865 8.50215 -3.92108
thorax -2.73968 4.23816 -3.79488
lowerneck -15.9861 -1.78697 -7.1499
upperneck 22.8004 -0.238579 -0.722337
head 9.93428 -0.766833 0.917812
rclavicle 6.79844e-014 -2.3059e-014
rhumerus 9.1465 36.763 -94.146
rradius 79.717
rwrist -58.2859
rhand -14.7977 -9.86173
rfingers 7.12502
rthumb 11.3599 -39.534
lclavicle 6.79844e-014 -2.3059e-014
lhumerus -12.4329 -9.39839 88.4106
lradius 97.2859
lwrist 52.5085
lhand 7.46254 17.9795
lfingers 7.12502
lthumb 32.7159 45.0393
rfemur -18.0745 -27.1322 28.0222
rtibia 29.7232
rfoot -22.5043 -36.1476
rtoes 7.32015
lfemur -35.751 -11.8519 -9.61948
ltibia 25.4068
lfoot -4.75449 -21.6794
ltoes 9.71951
547
root 4.72801 17.6228 -4.14732 13.7826 17.0131 -3.70739
lowerback 11.2284 6.70509 -2.57532
upperback 3.09612 8.44407 -3.87559
thorax -2.77269 4.20847 -3.72475
lowerneck -15.796 -2.3513 -7.79482
upperneck 22.3103 -1.02505 -0.184666
head 9.75968 -1.11163 1.10898
rclavicle -9.54166e-015 1.27222e-014
rhumerus 9.01203 36.5984 -94.2216
rradius 79.7055
rwrist -58.8014
rhand -14.529 -9.87356
rfingers 7.12502
rthumb 11.619 -39.5314
lclavicle -9.54166e-015 1.27222e-014
lhumerus -12.6537 -9.29523 88.4493
lradius 96.9108
lwrist 50.5273
lhand 7.7641 17.2082
lfingers 7.12502
lthumb 33.0027 44.2079
rfemur -18.0611 -27.0333 27.9896
rtibia 29.6153
rfoot -22.4504 -36.1485
rtoes 7.32671
lfemur -35.726 -11.8003 -9.651
ltibia 25.3282
lfoot -4.72762 -21.6388
ltoes 9.73805
548
root 4.73553 17.6263 -4.14417 13.8402 16.932 -3.69857
lowerback 11.1842 6.65981 -2.60549
upperback 3.05236 8.38261 -3.82752
thorax -2.80879 4.1771 -3.64885
lowerneck -15.5663 -2.94859 -8.44909
upperneck 21.7715 -1.86213 0.374824
head 9.57477 -1.47856 1.30289
rclavicle -8.82604e-014 4.05521e-014
rhumerus 8.86296 36.4758 -94.2916
rradius 79.7159
rwrist -59.183
rhand -14.4579 -9.82289
rfingers 7.12502
rthumb 11.6875 -39.4769
lclavicle -8.82604e-014 4.05521e-014
lhumerus -12.9158 -9.17919 88.4933
lradius 96.4612
lwrist 48.209
lhand 8.01347 16.2477
lfingers 7.12502
lthumb 33.2398 43.197
rfemur -18.0519 -26.9465 27.9592
rtibia 29.5107
rfoot -22.3917 -36.1513
rtoes 7.31732
lfemur -35.7074 -11.7593 -9.68215
ltibia 25.2527
lfoot -4.70527 -21.5977
ltoes 9.73569
